<svg width="800" height="600" viewBox="0 0 800 600" fill="none" xmlns="http://www.w3.org/2000/svg">
  <!-- Background gradient -->
  <rect width="800" height="600" rx="20" fill="url(#paint0_linear)" />
  
  <!-- Abstract tech elements -->
  <circle cx="400" cy="300" r="200" fill="#1E50FF" opacity="0.05" />
  <circle cx="400" cy="300" r="150" fill="#1E50FF" opacity="0.1" />
  <circle cx="400" cy="300" r="100" fill="#1E50FF" opacity="0.15" />
  
  <!-- Code/Tech visualization -->
  <rect x="150" y="150" width="500" height="300" rx="10" fill="#0F1524" />
  
  <!-- Code lines -->
  <rect x="180" y="180" width="300" height="15" rx="5" fill="#FFFFFF" opacity="0.7" />
  <rect x="180" y="210" width="250" height="15" rx="5" fill="#FFFFFF" opacity="0.5" />
  <rect x="180" y="240" width="350" height="15" rx="5" fill="#FFFFFF" opacity="0.6" />
  <rect x="180" y="270" width="200" height="15" rx="5" fill="#FFFFFF" opacity="0.4" />
  <rect x="180" y="300" width="280" height="15" rx="5" fill="#FFFFFF" opacity="0.7" />
  <rect x="180" y="330" width="320" height="15" rx="5" fill="#FFFFFF" opacity="0.5" />
  <rect x="180" y="360" width="270" height="15" rx="5" fill="#FFFFFF" opacity="0.6" />
  <rect x="180" y="390" width="330" height="15" rx="5" fill="#FFFFFF" opacity="0.4" />
  
  <!-- Tech icons -->
  <circle cx="600" cy="200" r="30" fill="#1E50FF" />
  <rect x="585" y="185" width="30" height="30" rx="5" fill="#FFFFFF" opacity="0.9" />
  
  <circle cx="600" cy="280" r="30" fill="#1E50FF" opacity="0.8" />
  <path d="M585 280L615 280M600 265L600 295" stroke="#FFFFFF" stroke-width="4" stroke-linecap="round" />
  
  <circle cx="600" cy="360" r="30" fill="#1E50FF" opacity="0.7" />
  <path d="M590 350L610 370M610 350L590 370" stroke="#FFFFFF" stroke-width="4" stroke-linecap="round" />
  
  <!-- Decorative elements -->
  <circle cx="100" cy="100" r="20" fill="#1E50FF" opacity="0.5" />
  <circle cx="700" cy="500" r="30" fill="#1E50FF" opacity="0.5" />
  <circle cx="200" cy="500" r="25" fill="#1E50FF" opacity="0.3" />
  <circle cx="600" cy="100" r="15" fill="#1E50FF" opacity="0.4" />
  
  <!-- Grid pattern -->
  <path d="M0 100H800" stroke="#FFFFFF" stroke-opacity="0.05" />
  <path d="M0 200H800" stroke="#FFFFFF" stroke-opacity="0.05" />
  <path d="M0 300H800" stroke="#FFFFFF" stroke-opacity="0.05" />
  <path d="M0 400H800" stroke="#FFFFFF" stroke-opacity="0.05" />
  <path d="M0 500H800" stroke="#FFFFFF" stroke-opacity="0.05" />
  
  <path d="M100 0V600" stroke="#FFFFFF" stroke-opacity="0.05" />
  <path d="M200 0V600" stroke="#FFFFFF" stroke-opacity="0.05" />
  <path d="M300 0V600" stroke="#FFFFFF" stroke-opacity="0.05" />
  <path d="M400 0V600" stroke="#FFFFFF" stroke-opacity="0.05" />
  <path d="M500 0V600" stroke="#FFFFFF" stroke-opacity="0.05" />
  <path d="M600 0V600" stroke="#FFFFFF" stroke-opacity="0.05" />
  <path d="M700 0V600" stroke="#FFFFFF" stroke-opacity="0.05" />
  
  <!-- Gradient definitions -->
  <defs>
    <linearGradient id="paint0_linear" x1="0" y1="0" x2="800" y2="600" gradientUnits="userSpaceOnUse">
      <stop stop-color="#0F1524" />
      <stop offset="1" stop-color="#1A1F2F" />
    </linearGradient>
  </defs>
</svg>