<svg width="800" height="600" viewBox="0 0 800 600" fill="none" xmlns="http://www.w3.org/2000/svg">
  <!-- Background gradient -->
  <rect width="800" height="600" rx="20" fill="url(#paint0_linear)" />
  
  <!-- Abstract tech elements -->
  <circle cx="200" cy="300" r="80" fill="#1E50FF" opacity="0.2" />
  <circle cx="600" cy="200" r="100" fill="#1E50FF" opacity="0.15" />
  <circle cx="400" cy="450" r="120" fill="#1E50FF" opacity="0.1" />
  
  <!-- Grid pattern -->
  <path d="M0 100H800" stroke="#FFFFFF" stroke-opacity="0.1" />
  <path d="M0 200H800" stroke="#FFFFFF" stroke-opacity="0.1" />
  <path d="M0 300H800" stroke="#FFFFFF" stroke-opacity="0.1" />
  <path d="M0 400H800" stroke="#FFFFFF" stroke-opacity="0.1" />
  <path d="M0 500H800" stroke="#FFFFFF" stroke-opacity="0.1" />
  
  <path d="M100 0V600" stroke="#FFFFFF" stroke-opacity="0.1" />
  <path d="M200 0V600" stroke="#FFFFFF" stroke-opacity="0.1" />
  <path d="M300 0V600" stroke="#FFFFFF" stroke-opacity="0.1" />
  <path d="M400 0V600" stroke="#FFFFFF" stroke-opacity="0.1" />
  <path d="M500 0V600" stroke="#FFFFFF" stroke-opacity="0.1" />
  <path d="M600 0V600" stroke="#FFFFFF" stroke-opacity="0.1" />
  <path d="M700 0V600" stroke="#FFFFFF" stroke-opacity="0.1" />
  
  <!-- Team silhouettes -->
  <rect x="150" y="200" width="500" height="250" rx="10" fill="#0F1524" />
  
  <!-- Person 1 -->
  <rect x="200" y="250" width="80" height="150" rx="40" fill="#1E50FF" opacity="0.7" />
  <circle cx="240" cy="230" r="30" fill="#1E50FF" opacity="0.7" />
  
  <!-- Person 2 -->
  <rect x="320" y="250" width="80" height="150" rx="40" fill="#1E50FF" opacity="0.8" />
  <circle cx="360" cy="230" r="30" fill="#1E50FF" opacity="0.8" />
  
  <!-- Person 3 -->
  <rect x="440" y="250" width="80" height="150" rx="40" fill="#1E50FF" opacity="0.9" />
  <circle cx="480" cy="230" r="30" fill="#1E50FF" opacity="0.9" />
  
  <!-- Person 4 -->
  <rect x="560" y="250" width="80" height="150" rx="40" fill="#1E50FF" />
  <circle cx="600" cy="230" r="30" fill="#1E50FF" />
  
  <!-- Decorative elements -->
  <circle cx="100" cy="100" r="20" fill="#1E50FF" opacity="0.5" />
  <circle cx="700" cy="500" r="30" fill="#1E50FF" opacity="0.5" />
  
  <!-- Text placeholder -->
  <rect x="250" y="450" width="300" height="20" rx="5" fill="#FFFFFF" opacity="0.7" />
  <rect x="300" y="480" width="200" height="20" rx="5" fill="#FFFFFF" opacity="0.5" />
  
  <!-- Gradient definitions -->
  <defs>
    <linearGradient id="paint0_linear" x1="0" y1="0" x2="800" y2="600" gradientUnits="userSpaceOnUse">
      <stop stop-color="#0F1524" />
      <stop offset="1" stop-color="#1A1F2F" />
    </linearGradient>
  </defs>
</svg>